<mxfile host="app.diagrams.net" modified="2023-02-16T12:34:22.353Z" agent="5.0 (Windows NT 10.0; Win64; x64) AppleWebKit/537.36 (KHTML, like Gecko) Chrome/110.0.0.0 Safari/537.36 Edg/110.0.1587.41" etag="hDE5mgSHfuA7afRouXdW" version="20.8.20" type="github">
  <diagram name="第 1 页" id="dW9sDW1R2gOT_-_HRtiQ">
    <mxGraphModel dx="1434" dy="796" grid="1" gridSize="10" guides="1" tooltips="1" connect="1" arrows="1" fold="1" page="1" pageScale="1" pageWidth="827" pageHeight="1169" math="0" shadow="0">
      <root>
        <mxCell id="0" />
        <mxCell id="1" parent="0" />
        <mxCell id="Bg-CjvVRX6327Nk3v-DV-4" style="edgeStyle=orthogonalEdgeStyle;rounded=0;orthogonalLoop=1;jettySize=auto;html=1;exitX=0.75;exitY=1;exitDx=0;exitDy=0;entryX=0.75;entryY=0;entryDx=0;entryDy=0;" edge="1" parent="1" source="Bg-CjvVRX6327Nk3v-DV-1" target="Bg-CjvVRX6327Nk3v-DV-2">
          <mxGeometry relative="1" as="geometry" />
        </mxCell>
        <mxCell id="Bg-CjvVRX6327Nk3v-DV-1" value="View视图" style="rounded=1;whiteSpace=wrap;html=1;" vertex="1" parent="1">
          <mxGeometry x="130" y="170" width="120" height="60" as="geometry" />
        </mxCell>
        <mxCell id="Bg-CjvVRX6327Nk3v-DV-5" style="edgeStyle=orthogonalEdgeStyle;rounded=0;orthogonalLoop=1;jettySize=auto;html=1;exitX=0.25;exitY=0;exitDx=0;exitDy=0;entryX=0.25;entryY=1;entryDx=0;entryDy=0;" edge="1" parent="1" source="Bg-CjvVRX6327Nk3v-DV-2" target="Bg-CjvVRX6327Nk3v-DV-1">
          <mxGeometry relative="1" as="geometry" />
        </mxCell>
        <mxCell id="Bg-CjvVRX6327Nk3v-DV-6" style="edgeStyle=orthogonalEdgeStyle;rounded=0;orthogonalLoop=1;jettySize=auto;html=1;exitX=1;exitY=0.5;exitDx=0;exitDy=0;entryX=0;entryY=0.5;entryDx=0;entryDy=0;" edge="1" parent="1" source="Bg-CjvVRX6327Nk3v-DV-2" target="Bg-CjvVRX6327Nk3v-DV-3">
          <mxGeometry relative="1" as="geometry" />
        </mxCell>
        <mxCell id="Bg-CjvVRX6327Nk3v-DV-2" value="Presenter表示器" style="rounded=1;whiteSpace=wrap;html=1;" vertex="1" parent="1">
          <mxGeometry x="130" y="330" width="120" height="60" as="geometry" />
        </mxCell>
        <mxCell id="Bg-CjvVRX6327Nk3v-DV-3" value="Model模型" style="rounded=1;whiteSpace=wrap;html=1;" vertex="1" parent="1">
          <mxGeometry x="370" y="330" width="120" height="60" as="geometry" />
        </mxCell>
        <mxCell id="Bg-CjvVRX6327Nk3v-DV-7" value="调用Model加载数据" style="text;html=1;strokeColor=none;fillColor=none;align=center;verticalAlign=middle;whiteSpace=wrap;rounded=0;" vertex="1" parent="1">
          <mxGeometry x="280" y="360" width="60" height="30" as="geometry" />
        </mxCell>
        <mxCell id="Bg-CjvVRX6327Nk3v-DV-8" value="向界面显示数据" style="text;html=1;strokeColor=none;fillColor=none;align=center;verticalAlign=middle;whiteSpace=wrap;rounded=0;rotation=90;" vertex="1" parent="1">
          <mxGeometry x="110" y="260" width="60" height="30" as="geometry" />
        </mxCell>
        <mxCell id="Bg-CjvVRX6327Nk3v-DV-9" value="通知Presenter加载数据" style="text;html=1;strokeColor=none;fillColor=none;align=center;verticalAlign=middle;whiteSpace=wrap;rounded=0;rotation=-90;" vertex="1" parent="1">
          <mxGeometry x="210" y="260" width="60" height="30" as="geometry" />
        </mxCell>
      </root>
    </mxGraphModel>
  </diagram>
</mxfile>
